<mxfile host="app.diagrams.net" modified="2023-11-20T11:35:08.199Z" agent="Mozilla/5.0 (Windows NT 10.0; Win64; x64; rv:109.0) Gecko/20100101 Firefox/119.0" version="22.1.3" etag="GV8I71_-DDRxhIyrFm8x" type="github">
  <diagram name="Sivu-1" id="c2cKNUpyTKu-CDS1pfL3">
    <mxGraphModel>
      <root>
        <mxCell id="0" />
        <mxCell id="1" parent="0" />
      </root>
    </mxGraphModel>
  </diagram>
</mxfile>
